<svg xmlns="http://www.w3.org/2000/svg" viewBox="0 0 470 168" role="img" aria-labelledby="title desc">
  <title id="title">DUNO 360 logo</title>
  <desc id="desc">DUNO 360 wordmark with circular commerce arrows and cart icon</desc>
  <defs>
    <linearGradient id="tealGrad" x1="0" x2="1" y1="0" y2="1">
      <stop offset="0%" stop-color="#22d3ee"/>
      <stop offset="100%" stop-color="#67e8f9"/>
    </linearGradient>
    <linearGradient id="yellowGrad" x1="0" x2="1" y1="0" y2="1">
      <stop offset="0%" stop-color="#ffd54a"/>
      <stop offset="100%" stop-color="#f5b700"/>
    </linearGradient>
    <marker id="arrowTeal" markerWidth="10" markerHeight="10" refX="8" refY="5" orient="auto">
      <path d="M0,0 L10,5 L0,10 z" fill="#22d3ee"/>
    </marker>
    <marker id="arrowYellow" markerWidth="10" markerHeight="10" refX="8" refY="5" orient="auto">
      <path d="M0,0 L10,5 L0,10 z" fill="#f5b700"/>
    </marker>
    <radialGradient id="iconGlow" cx="50%" cy="50%" r="50%">
      <stop offset="0%" stop-color="#ffffff" stop-opacity="0.32"/>
      <stop offset="65%" stop-color="#ffffff" stop-opacity="0.14"/>
      <stop offset="100%" stop-color="#ffffff" stop-opacity="0"/>
    </radialGradient>
  </defs>

  <!-- Wordmark: textLength pins glyph width so rendering is identical on every
       platform font stack (Segoe UI / Roboto / Helvetica / Arial fallbacks). -->
  <g font-family="'Segoe UI', Roboto, Helvetica, Arial, sans-serif" font-weight="800">
    <text x="12" y="82" font-size="70" fill="#ffffff"
          textLength="228" lengthAdjust="spacingAndGlyphs">DUNO</text>
    <text x="118" y="150" font-size="66" fill="url(#yellowGrad)"
          textLength="132" lengthAdjust="spacingAndGlyphs">360</text>
  </g>

  <!-- Growth spark above the wordmark gap -->
  <path d="M254 84 L282 52 L300 70 L326 40" fill="none" stroke="#ffffff" stroke-width="9" stroke-linecap="round" stroke-linejoin="round"/>

  <!-- Soft glow halo behind the icon cluster: guarantees contrast against any
       navbar shade, independent of the exact teal/yellow hue used above. -->
  <circle cx="377" cy="93" r="88" fill="url(#iconGlow)"/>

  <!-- Circular commerce arrows -->
  <path d="M318 62 A72 72 0 0 1 438 66" fill="none" stroke="url(#tealGrad)" stroke-width="15" stroke-linecap="round" marker-end="url(#arrowTeal)"/>
  <path d="M440 74 A72 72 0 0 1 434 136" fill="none" stroke="url(#yellowGrad)" stroke-width="15" stroke-linecap="round" marker-end="url(#arrowYellow)"/>
  <path d="M414 146 A72 72 0 0 1 314 128" fill="none" stroke="url(#tealGrad)" stroke-width="15" stroke-linecap="round" marker-end="url(#arrowTeal)"/>

  <!-- Cart badge -->
  <circle cx="376" cy="98" r="40" fill="none" stroke="#ffffff" stroke-width="8"/>
  <path d="M350 84 H402 L396 110 H357 Z" fill="none" stroke="#ffffff" stroke-width="7" stroke-linejoin="round"/>
  <circle cx="363" cy="120" r="5.5" fill="#ffffff"/>
  <circle cx="389" cy="120" r="5.5" fill="#ffffff"/>
  <path d="M366 84 C368 71 373 63 381 59" fill="none" stroke="#ffffff" stroke-width="6.5" stroke-linecap="round"/>
</svg>
